<svg version="1.1" id="Layer_1" xmlns="http://www.w3.org/2000/svg" xmlns:xlink="http://www.w3.org/1999/xlink" x="0px" y="0px"
	 width="105.173px" height="70.174px" viewBox="0 0 105.173 70.174" enable-background="new 0 0 105.173 70.174"
	 xml:space="preserve">
<polygon fill="#DBC532" stroke="#C4A923" stroke-width="0.9609" stroke-miterlimit="10" points="18.044,17.509 22.153,2.4 
	31.96,13.666 42.829,3.857 49.853,14.858 68.275,1.207 74.239,16.846 85.638,12.208 87.625,18.967 95.71,17.642 93.192,28.509 
	103.795,32.353 94.782,38.449 100.349,45.474 81.926,46.136 87.493,55.016 73.312,48.655 66.022,62.306 60.919,49.848 
	51.841,65.486 46.274,49.317 31.695,67.74 33.949,49.848 19.237,58.33 20.96,45.871 5.586,49.317 15.791,38.317 1.345,29.172 
	13.008,21.882 11.683,9.026 "/>
</svg>
