<svg width="376" height="148" xmlns="http://www.w3.org/2000/svg"><defs><linearGradient x1="-.001%" y1="-96.298%" x2="99.999%" y2="-96.298%" id="a"><stop stop-color="#593D09" offset="0%"/><stop stop-color="#7F5200" offset="100%"/></linearGradient><linearGradient x1="0%" y1="-96.365%" x2="100%" y2="-96.365%" id="b"><stop stop-color="#563B09" offset="0%"/><stop stop-color="#291D04" offset="100%"/></linearGradient></defs><g fill="none" fill-rule="evenodd"><path d="M273.222.13c-4.047 0-7.747 1.272-10.625 3.406a18.252 18.252 0 0 0-7.844-1.75c-9.153 0-16.562 6.581-16.562 14.688 0 1.588.285 3.13.812 4.562-2.582 2.588-4.156 5.962-4.156 9.688 0 1.26.194 2.489.531 3.656a17.312 17.312 0 0 0-4.125 1.781c-2.471 1.13-4.604 2.754-6.156 4.781-.003.001.003.03 0 .031-1.545.58-3 1.221-4.375 1.938-2.618-6.062-7.616-10.46-13.562-11.5-3.08-2.779-6.907-4.438-11.094-4.438-3.958 0-7.635 1.46-10.625 3.97-2.772-1.99-6.012-3.157-9.5-3.157-9.503 0-17.295 8.533-18.156 19.406a15.844 15.844 0 0 0-5.344-.937c-5.605 0-10.621 2.965-13.969 7.625-.924-.046-1.87-.094-2.812-.094a54.9 54.9 0 0 0-8.5.656c-3.154-6.401-9.052-10.718-15.813-10.718-7.67 0-14.238 5.549-16.937 13.406-2.87-7.403-9.204-12.563-16.594-12.563-5.575 0-10.559 2.946-13.906 7.563-2.177-1.075-4.553-1.688-7.063-1.688-7.538 0-14.029 5.36-16.812 13-2.703-1.854-5.83-2.937-9.188-2.937-6.773 0-12.694 4.329-15.844 10.75a9.458 9.458 0 0 0-4.312-1.063C4.782 70.192.003 75.8.003 82.724s4.78 12.53 10.688 12.53a9.515 9.515 0 0 0 5-1.405c.063.11.153.203.219.312 1.4 4.023 4.533 6.993 8.312 7.656 2.051.936 4.291 1.469 6.625 1.469 3.28 0 6.34-1.037 9-2.812 1.288 5.228 5.405 9.062 10.281 9.062.783 0 1.547-.094 2.282-.281a17.391 17.391 0 0 0 7.593 1.75 17.32 17.32 0 0 0 6.5-1.281c1.887 1.964 4.369 3.156 7.094 3.156 3.396 0 6.415-1.859 8.375-4.75 4.403 7.92 16.109 13.738 30.156 14.375 1.845 3.768 5.308 6.312 9.282 6.312 3.562 0 6.711-2.05 8.656-5.187a25.071 25.071 0 0 0 3.437 3.062c.83 5.957 5.245 10.5 10.563 10.5 2.895 0 5.511-1.342 7.437-3.531l.282.031c1.61 4.534 5.422 7.719 9.875 7.719 1.278 0 2.52-.268 3.656-.75 6.333 4.341 15.515 7.062 25.719 7.062 13.526 0 25.215-4.79 30.906-11.78a55.991 55.991 0 0 0 2.312-.157c2.14.918 4.51 1.469 7.032 1.469 6.913 0 12.827-3.864 15.312-9.344a25.81 25.81 0 0 0 1.188-.969c.906.14 1.83.25 2.78.25a18.14 18.14 0 0 0 4.157-.5c1.845 3.768 5.308 6.313 9.281 6.313 4.317 0 8.028-2.998 9.719-7.313.926.142 1.872.219 2.844.219 3.162 0 6.111-.796 8.625-2.156 1.913 2.1 4.484 3.375 7.312 3.375 4.54 0 8.416-3.323 9.969-8 .447.046.888.093 1.344.093 1.123 0 2.22-.162 3.281-.437 1.782 1.556 3.982 2.469 6.375 2.469 4.41 0 8.207-3.129 9.844-7.594 2.51 1.395 5.468 2.187 8.625 2.187 6.44 0 12.007-3.33 14.75-8.218a18.025 18.025 0 0 0 6.219 1.093c9.152 0 16.562-6.756 16.562-15.093 0-.988-.114-1.94-.312-2.875 1.275-2.14 2-4.582 2-7.188 0-4.866-2.544-9.177-6.47-11.937.382-1.27.595-2.62.595-4 0-8.338-7.441-15.094-16.594-15.094-.81 0-1.597.085-2.375.187.32-1.138.5-2.305.5-3.53 0-8.107-7.41-14.688-16.563-14.688-.264 0-.52.02-.781.03-1.848-3.753-5.317-6.28-9.281-6.28-1.55 0-3.015.4-4.344 1.093-4.103-7.03-14-12.34-26.125-13.75.017-.27.063-.537.063-.812 0-8.106-7.41-14.656-16.563-14.656zm41.719 54.687c.618 1.318 1.467 2.534 2.469 3.625a54.926 54.926 0 0 0-2.813-.281c.245-1.003.344-2.026.344-3.094 0-.084.002-.166 0-.25zm-36.563 2.969c1.228.108 2.485.162 3.75.188.16.7.419 1.37.688 2.03-1.43-.692-2.965-1.295-4.563-1.843.04-.125.09-.249.125-.375z" fill="url(#a)" transform="translate(-.003 .158)"/><path d="M273.645.228c-4.047 0-7.747 1.272-10.625 3.406a18.252 18.252 0 0 0-7.844-1.75c-1.396 0-2.736.18-4.031.47a104.533 104.533 0 0 1 8.219 6.937c11.3 1.245 20.062 10.258 20.062 21.218 0 2.39-.419 4.699-1.187 6.844 1.645 5.01 2.531 10.165 2.531 15.438v.062c4.45 3.904 7.219 9.45 7.219 15.625 0 11.705-10.002 21.235-22.406 21.406-.378.436-.766.881-1.157 1.313.968 2.144 1.5 4.456 1.5 6.844 0 11.811-12.82 21.375-28.656 21.375-1.409 0-2.802-.073-4.156-.22-2.43 10.343-16.843 18.282-34.25 18.282-6.077 0-11.787-.956-16.75-2.656-3.31 3.805-8.044 6.586-13.469 7.719 6.095 3.305 14.066 5.28 22.813 5.28 13.526 0 25.215-4.79 30.906-11.78a55.558 55.558 0 0 0 2.312-.157c2.14.918 4.51 1.47 7.032 1.47 6.913 0 12.827-3.865 15.312-9.345.415-.321.803-.632 1.188-.968.906.14 1.83.25 2.78.25a18.14 18.14 0 0 0 4.157-.5c1.845 3.768 5.308 6.312 9.281 6.312 4.317 0 8.028-2.998 9.719-7.312.926.142 1.872.218 2.844.218 3.162 0 6.111-.795 8.625-2.156 1.913 2.1 4.484 3.375 7.312 3.375 4.54 0 8.416-3.323 9.969-8 .447.047.888.094 1.344.094 1.123 0 2.22-.163 3.281-.438 1.782 1.556 3.982 2.47 6.375 2.47 4.41 0 8.207-3.13 9.844-7.595 2.51 1.395 5.468 2.188 8.625 2.188 6.44 0 12.007-3.33 14.75-8.219a18.025 18.025 0 0 0 6.219 1.094c9.152 0 16.562-6.756 16.562-15.094 0-.988-.114-1.94-.312-2.875 1.275-2.139 2-4.582 2-7.187 0-4.867-2.544-9.177-6.47-11.938.382-1.27.595-2.62.595-4 0-8.338-7.441-15.094-16.594-15.094-.81 0-1.597.085-2.375.188.32-1.138.5-2.306.5-3.531 0-8.106-7.41-14.688-16.563-14.688-.264 0-.52.02-.781.031-1.848-3.754-5.317-6.281-9.281-6.281-1.55 0-3.015.4-4.344 1.094-4.103-7.03-14-12.34-26.125-13.75.017-.271.063-.538.063-.813 0-8.106-7.41-14.656-16.563-14.656zm41.719 54.688c.618 1.317 1.467 2.534 2.469 3.625a54.792 54.792 0 0 0-2.813-.282c.245-1.003.344-2.025.344-3.093 0-.084.002-.166 0-.25z" fill="url(#b)" transform="translate(-.003 .158)"/><path d="M161.417 114.698c1.451 0 2.805.421 3.954 1.133h.1c4.024 0 7.318 3.157 7.52 7.13.007.13 0 .26 0 .39 0 1.089-.24 2.12-.656 3.054a7.462 7.462 0 0 1 1.267 4.177c0 .13.007.26 0 .388-.202 3.975-3.496 7.131-7.52 7.131-.398 0-.785-.03-1.166-.089a7.504 7.504 0 0 1-4.11 1.222 7.502 7.502 0 0 1-3.999-1.144 7.274 7.274 0 0 1-.444.011c-4.154 0-7.53-3.365-7.53-7.52 0-1.094.244-2.13.666-3.065a7.414 7.414 0 0 1-1.278-4.165c0-4.155 3.377-7.52 7.531-7.52.507 0 1 .05 1.477.144a7.466 7.466 0 0 1 4.188-1.277h0z" stroke="#000" stroke-width="1.066" fill="#734B02"/><path d="M163.317 117.1c1.45 0 2.805.42 3.954 1.132h.1c4.024 0 7.318 3.157 7.52 7.131.006.128 0 .259 0 .389 0 1.089-.24 2.12-.656 3.054a7.462 7.462 0 0 1 1.266 4.177c0 .13.007.26 0 .388-.201 3.975-3.495 7.131-7.52 7.131a7.6 7.6 0 0 1-1.166-.088 7.504 7.504 0 0 1-4.11 1.221 7.502 7.502 0 0 1-3.998-1.144 7.274 7.274 0 0 1-.444.011c-4.155 0-7.531-3.365-7.531-7.52 0-1.094.245-2.13.666-3.065a7.414 7.414 0 0 1-1.277-4.165c0-4.155 3.376-7.52 7.53-7.52.508 0 1 .05 1.478.144a7.466 7.466 0 0 1 4.188-1.277z" fill="#3B2906"/><path d="M244.517 114.155c1.451 0 2.806.422 3.954 1.133h.1c4.025 0 7.319 3.157 7.52 7.131.007.128 0 .259 0 .389a7.5 7.5 0 0 1-.655 3.054 7.462 7.462 0 0 1 1.266 4.177c0 .13.007.26 0 .388-.201 3.975-3.495 7.131-7.52 7.131-.397 0-.785-.03-1.166-.089a7.504 7.504 0 0 1-4.11 1.222 7.502 7.502 0 0 1-3.998-1.144 7.274 7.274 0 0 1-.445.011c-4.154 0-7.53-3.365-7.53-7.52 0-1.094.244-2.13.666-3.065a7.414 7.414 0 0 1-1.277-4.165c0-4.155 3.376-7.52 7.53-7.52.508 0 1 .05 1.478.144a7.466 7.466 0 0 1 4.187-1.277h0z" stroke="#000" stroke-width="1.066" fill="#734B02"/><path d="M246.417 116.556c1.451 0 2.805.422 3.954 1.133h.1c4.025 0 7.318 3.157 7.52 7.131.007.128 0 .26 0 .389a7.5 7.5 0 0 1-.655 3.054 7.462 7.462 0 0 1 1.266 4.177c0 .13.007.26 0 .389-.202 3.974-3.495 7.13-7.52 7.13a7.6 7.6 0 0 1-1.166-.088 7.504 7.504 0 0 1-4.11 1.221 7.502 7.502 0 0 1-3.999-1.144 7.274 7.274 0 0 1-.444.011c-4.154 0-7.53-3.365-7.53-7.52a7.44 7.44 0 0 1 .666-3.065 7.414 7.414 0 0 1-1.278-4.165c0-4.154 3.377-7.52 7.531-7.52.507 0 1 .05 1.477.145a7.466 7.466 0 0 1 4.188-1.278z" fill="#3B2906"/><path d="M353.451 67.57c2.239 0 4.328.65 6.1 1.748h.155c6.208 0 11.29 4.87 11.6 11.001.011.198 0 .4 0 .6 0 1.68-.37 3.271-1.01 4.712a11.511 11.511 0 0 1 1.953 6.443c0 .2.011.402 0 .6-.31 6.131-5.392 11.001-11.6 11.001a11.71 11.71 0 0 1-1.8-.137 11.577 11.577 0 0 1-6.34 1.885c-2.264 0-4.383-.644-6.169-1.765a11.21 11.21 0 0 1-.685.017c-6.41 0-11.618-5.192-11.618-11.6 0-1.689.377-3.286 1.028-4.73a11.437 11.437 0 0 1-1.97-6.426c0-6.409 5.208-11.601 11.617-11.601.782 0 1.542.076 2.28.223a11.518 11.518 0 0 1 6.46-1.97h0z" stroke="#000" stroke-width="1.645" fill="#734B02"/><path d="M356.382 71.275c2.239 0 4.328.65 6.1 1.747h.155c6.208 0 11.29 4.87 11.6 11.002.011.197 0 .4 0 .6 0 1.68-.37 3.27-1.01 4.712a11.511 11.511 0 0 1 1.953 6.443c0 .2.01.402 0 .6-.31 6.13-5.392 11-11.601 11-.613 0-1.211-.046-1.8-.137a11.577 11.577 0 0 1-6.34 1.885 11.57 11.57 0 0 1-6.168-1.765c-.227.014-.455.017-.686.017-6.409 0-11.618-5.192-11.618-11.6 0-1.689.378-3.286 1.028-4.73a11.438 11.438 0 0 1-1.97-6.426c0-6.409 5.209-11.6 11.618-11.6.782 0 1.541.076 2.279.222a11.518 11.518 0 0 1 6.46-1.97z" fill="#3B2906"/><path d="M303.21 47.096c1.538 0 2.974.447 4.192 1.202h.106c4.268 0 7.76 3.347 7.974 7.561.007.136 0 .275 0 .412a7.945 7.945 0 0 1-.695 3.24 7.912 7.912 0 0 1 1.343 4.428c0 .138.007.276 0 .412-.214 4.215-3.706 7.562-7.974 7.562a8 8 0 0 1-1.236-.095 7.957 7.957 0 0 1-4.358 1.296 7.955 7.955 0 0 1-4.24-1.213c-.157.01-.313.012-.472.012-4.405 0-7.985-3.569-7.985-7.974 0-1.16.26-2.258.707-3.25a7.861 7.861 0 0 1-1.355-4.418c0-4.405 3.58-7.973 7.986-7.973.537 0 1.06.052 1.566.153a7.917 7.917 0 0 1 4.44-1.355h0z" stroke="#000" stroke-width="1.131" fill="#734B02"/><path d="M306.901 51.32c1.539 0 2.975.447 4.193 1.201h.106c4.268 0 7.76 3.347 7.974 7.562.007.136 0 .274 0 .412a7.945 7.945 0 0 1-.695 3.239 7.912 7.912 0 0 1 1.343 4.428c0 .138.007.277 0 .413-.214 4.214-3.706 7.561-7.974 7.561-.422 0-.833-.031-1.237-.094a7.957 7.957 0 0 1-4.358 1.296 7.956 7.956 0 0 1-4.24-1.214c-.156.01-.312.012-.47.012-4.406 0-7.986-3.568-7.986-7.974 0-1.16.26-2.258.706-3.25a7.861 7.861 0 0 1-1.354-4.417c0-4.405 3.58-7.974 7.985-7.974.538 0 1.06.053 1.567.153a7.917 7.917 0 0 1 4.44-1.354z" opacity=".802" fill="#3B2906"/><path d="M31.487 80.607a7.49 7.49 0 0 1 3.954 1.133h.1c4.024 0 7.318 3.156 7.52 7.13.007.13 0 .26 0 .39 0 1.089-.24 2.12-.656 3.054a7.462 7.462 0 0 1 1.267 4.177c0 .13.007.26 0 .388-.202 3.975-3.496 7.131-7.52 7.131-.398 0-.785-.03-1.166-.089a7.504 7.504 0 0 1-4.11 1.222A7.502 7.502 0 0 1 26.877 104a7.274 7.274 0 0 1-.444.011c-4.154 0-7.531-3.365-7.531-7.52 0-1.094.245-2.13.666-3.065a7.414 7.414 0 0 1-1.277-4.165c0-4.155 3.377-7.52 7.53-7.52.508 0 1 .05 1.478.144a7.466 7.466 0 0 1 4.188-1.277h0z" stroke="#000" stroke-width="1.066" fill="#734B02"/><path d="M33.386 83.008a7.5 7.5 0 0 1 3.955 1.133h.1c4.024 0 7.318 3.157 7.52 7.131.006.128 0 .259 0 .389 0 1.089-.24 2.12-.656 3.054a7.462 7.462 0 0 1 1.266 4.177c0 .13.007.26 0 .388-.201 3.975-3.495 7.131-7.52 7.131a7.6 7.6 0 0 1-1.166-.088 7.504 7.504 0 0 1-4.11 1.221 7.502 7.502 0 0 1-3.998-1.144 7.274 7.274 0 0 1-.444.011c-4.155 0-7.531-3.365-7.531-7.52 0-1.094.244-2.13.666-3.065a7.414 7.414 0 0 1-1.277-4.165c0-4.155 3.376-7.52 7.53-7.52.508 0 1 .05 1.478.144a7.466 7.466 0 0 1 4.187-1.277z" fill="#3B2906"/><path d="M108.647 85.64a7.49 7.49 0 0 1 3.955 1.132h.1c4.024 0 7.318 3.157 7.52 7.131.006.128 0 .259 0 .389 0 1.089-.24 2.12-.656 3.054a7.462 7.462 0 0 1 1.266 4.177c0 .13.007.26 0 .389-.201 3.974-3.495 7.13-7.52 7.13a7.73 7.73 0 0 1-1.166-.088 7.504 7.504 0 0 1-4.11 1.221 7.502 7.502 0 0 1-3.998-1.144 7.274 7.274 0 0 1-.445.011c-4.154 0-7.53-3.365-7.53-7.52 0-1.094.244-2.129.666-3.065a7.414 7.414 0 0 1-1.277-4.165c0-4.154 3.376-7.52 7.53-7.52.508 0 1 .05 1.478.144a7.466 7.466 0 0 1 4.187-1.277h0z" stroke="#000" stroke-width="1.066" fill="#734B02"/><path d="M110.547 88.04c1.451 0 2.805.422 3.954 1.133h.1c4.025 0 7.319 3.157 7.52 7.131.007.128 0 .26 0 .389 0 1.089-.24 2.12-.655 3.055a7.462 7.462 0 0 1 1.266 4.176c0 .13.007.26 0 .389-.202 3.974-3.495 7.13-7.52 7.13a7.6 7.6 0 0 1-1.166-.088 7.504 7.504 0 0 1-4.11 1.222 7.502 7.502 0 0 1-3.999-1.145 7.274 7.274 0 0 1-.444.012c-4.154 0-7.53-3.366-7.53-7.52 0-1.094.244-2.13.666-3.066a7.414 7.414 0 0 1-1.278-4.165c0-4.154 3.377-7.52 7.531-7.52.507 0 1 .05 1.478.145a7.466 7.466 0 0 1 4.187-1.278z" fill-opacity=".507" fill="#3B2906"/><path d="M273.038 76.304c1.463 0 2.828.264 3.986.71h.101c4.057 0 7.378 1.98 7.581 4.473.007.08 0 .162 0 .244 0 .683-.242 1.33-.66 1.916.808.75 1.276 1.647 1.276 2.619 0 .081.007.163 0 .244-.203 2.492-3.524 4.472-7.581 4.472-.401 0-.792-.019-1.176-.056-1.19.484-2.616.767-4.143.767-1.48 0-2.865-.262-4.032-.718-.148.006-.297.007-.447.007-4.189 0-7.593-2.11-7.593-4.716 0-.686.247-1.336.672-1.923-.81-.748-1.288-1.641-1.288-2.612 0-2.606 3.405-4.716 7.593-4.716.51 0 1.007.03 1.489.09 1.208-.505 2.656-.8 4.222-.8h0z" stroke="#000" stroke-width=".848" fill="#734B02"/><path d="M274.953 77.81c1.463 0 2.828.264 3.986.71h.101c4.057 0 7.378 1.98 7.581 4.473.007.08 0 .162 0 .244 0 .683-.241 1.33-.66 1.916.808.75 1.276 1.647 1.276 2.619 0 .081.007.163 0 .244-.203 2.492-3.524 4.472-7.58 4.472-.402 0-.793-.019-1.177-.056-1.19.483-2.616.767-4.143.767-1.48 0-2.864-.262-4.031-.718-.149.006-.298.007-.448.007-4.188 0-7.593-2.11-7.593-4.716 0-.686.247-1.336.672-1.923-.81-.748-1.287-1.642-1.287-2.612 0-2.606 3.404-4.716 7.592-4.716.511 0 1.007.03 1.49.09 1.208-.506 2.655-.801 4.22-.801z" fill-opacity=".507" fill="#3B2906"/><path d="M81.75 46.153c1.462 0 2.828.264 3.986.71h.1c4.058 0 7.379 1.98 7.582 4.473.007.08 0 .162 0 .244 0 .683-.242 1.33-.661 1.916.808.75 1.277 1.647 1.277 2.619 0 .081.007.163 0 .244-.204 2.492-3.524 4.472-7.581 4.472-.401 0-.792-.019-1.176-.056-1.19.483-2.616.767-4.144.767-1.479 0-2.864-.262-4.03-.718-.15.006-.298.007-.449.007-4.188 0-7.592-2.11-7.592-4.716 0-.686.247-1.336.672-1.923-.81-.748-1.288-1.641-1.288-2.612 0-2.606 3.404-4.716 7.592-4.716.512 0 1.008.03 1.49.09 1.208-.505 2.656-.8 4.221-.8v-.001z" stroke="#000" stroke-width=".848" fill="#734B02"/><path d="M83.664 47.659c1.463 0 2.829.264 3.987.71h.1c4.058 0 7.379 1.98 7.582 4.473.007.08 0 .162 0 .244 0 .683-.242 1.33-.66 1.915.807.75 1.276 1.648 1.276 2.62 0 .081.007.163 0 .244-.203 2.492-3.524 4.472-7.581 4.472-.401 0-.792-.019-1.176-.056-1.19.483-2.616.767-4.143.767-1.48 0-2.865-.262-4.032-.718-.148.006-.297.007-.448.007-4.188 0-7.592-2.11-7.592-4.716 0-.686.247-1.336.672-1.923-.81-.748-1.288-1.642-1.288-2.612 0-2.606 3.404-4.717 7.593-4.717.51 0 1.007.032 1.489.091 1.208-.506 2.656-.801 4.222-.801z" fill-opacity=".507" fill="#3B2906"/><path d="M206.58 62.671c2.255 0 4.359.407 6.143 1.095h.155c6.252 0 11.368 3.05 11.68 6.89.012.125 0 .25 0 .376 0 1.053-.371 2.05-1.017 2.952 1.245 1.156 1.967 2.539 1.967 4.036 0 .125.01.252 0 .375-.313 3.841-5.43 6.891-11.68 6.891-.618 0-1.22-.029-1.812-.086-1.833.745-4.03 1.181-6.384 1.181-2.28 0-4.413-.403-6.211-1.105-.229.009-.458.01-.69.01-6.453 0-11.698-3.252-11.698-7.266 0-1.057.38-2.058 1.035-2.962-1.248-1.153-1.984-2.53-1.984-4.025 0-4.015 5.245-7.267 11.698-7.267.787 0 1.552.048 2.294.14 1.862-.78 4.093-1.235 6.505-1.235h0z" stroke="#000" stroke-width="1.306" fill="#734B02"/><path d="M209.532 64.991c2.254 0 4.357.408 6.142 1.095h.155c6.251 0 11.368 3.05 11.68 6.891.012.124 0 .25 0 .376 0 1.052-.372 2.049-1.017 2.951 1.245 1.156 1.967 2.54 1.967 4.036 0 .125.01.252 0 .376-.313 3.84-5.43 6.89-11.68 6.89-.618 0-1.22-.028-1.812-.085-1.834.744-4.03 1.18-6.384 1.18-2.28 0-4.413-.403-6.211-1.105-.229.009-.458.01-.69.01-6.453 0-11.698-3.252-11.698-7.266 0-1.057.38-2.058 1.035-2.962-1.248-1.153-1.984-2.53-1.984-4.025 0-4.015 5.245-7.267 11.698-7.267.787 0 1.552.048 2.294.14 1.862-.78 4.092-1.235 6.505-1.235z" fill-opacity=".507" fill="#3B2906"/></g></svg>