<svg width="197" height="276" xmlns="http://www.w3.org/2000/svg"><defs><linearGradient x1="-2.912%" y1="1913.752%" x2="102.931%" y2="1913.752%" id="a"><stop stop-color="#F1AAC2" offset="0%"/><stop stop-color="#E5638F" offset="100%"/></linearGradient><linearGradient x1="102.912%" y1="1911.469%" x2="-2.931%" y2="1911.469%" id="b"><stop stop-color="#F1AAC2" offset="0%"/><stop stop-color="#E5638F" offset="100%"/></linearGradient><linearGradient x1="27.36%" y1="18.787%" x2="90.184%" y2="90.34%" id="c"><stop stop-color="#FFCEAE" offset="0%"/><stop stop-color="#FFB280" offset="100%"/></linearGradient><linearGradient x1="-8.611%" y1="1770.326%" x2="108.556%" y2="1770.326%" id="d"><stop stop-color="#8A8A8A" offset="0%"/><stop stop-color="#F1F1F1" offset="28.57%"/><stop stop-color="#FFF" offset="100%"/></linearGradient><linearGradient x1="-8.633%" y1="1772.183%" x2="108.534%" y2="1772.183%" id="e"><stop stop-color="#8A8A8A" offset="0%"/><stop stop-color="#F1F1F1" offset="28.57%"/><stop stop-color="#FFF" offset="100%"/></linearGradient></defs><g fill="none" fill-rule="evenodd"><path d="M98.092 2.927c-.245 0-.575.038-.84.042v.042c-14.626.17-50.182 3.265-63.261 35.136-6.519-8.665-.006.002-21.031-19.94 0 0-26.38 25.847 9.613 44.203C35.075 178.403 9.604 222.976 83.609 221.382c4.217-.09 8.845-.03 13.643.084h.126l2.183.042v-.084c4.803-.113 9.423-.175 13.643-.084 74.005 1.594 48.535-42.98 61.037-158.972 35.993-18.356 9.613-44.203 9.613-44.203-21.026 19.942-14.513 11.275-21.031 19.94C149.302 5.158 111.695 2.927 98.092 2.927h0z" stroke="#000" stroke-width="5.81" fill="#333"/><path d="M169.767 196.171c0 42.53-31.198 77.005-69.682 77.005S30.403 238.7 30.403 196.171c0-42.528 31.198-77.004 69.682-77.004s69.682 34.476 69.682 77.004h0z" stroke="#000" stroke-width="2.705" fill="#93939F"/><path d="M99.044 120.06c37.428 1.331 67.418 35.263 67.418 76.947 0 39.342-26.697 71.758-61.163 76.4 24.048-6.713 42.23-38.118 42.23-75.854 0-40.954-21.403-74.458-48.485-77.03v-.462z" fill="#7F7F8D"/><path d="M98.863 118.921c-37.427 1.33-67.417 35.262-67.417 76.946 0 39.342 26.696 71.759 61.163 76.401-24.049-6.714-42.23-38.118-42.23-75.855 0-40.953 21.403-74.458 48.484-77.03v-.462z" fill="#C1C1C8"/><path d="M72.836 31.465c-17.275 0-31.304 16.22-31.304 36.208 0 19.989 14.029 36.206 31.304 36.206 10.152 0 19.16-5.606 24.879-14.283 5.717 8.682 14.745 14.283 24.903 14.283 17.27 0 31.3-16.221 31.3-36.206 0-19.984-14.03-36.208-31.3-36.208-10.156 0-19.186 5.605-24.903 14.285-5.72-8.674-14.729-14.285-24.879-14.285h0z" stroke="#000" stroke-width="5.484" fill="#FFF"/><path d="M138.19 34.965c.382 2.297.563 4.684.563 7.11 0 20.64-14.464 37.373-32.3 37.373-10.491 0-19.849-5.774-25.754-14.741-5.906 8.961-15.181 14.741-25.666 14.741-5.202 0-10.126-1.416-14.481-3.945 2.873 17.247 15.994 30.306 31.736 30.306 10.486 0 19.804-5.824 25.71-14.785 5.905 8.967 15.22 14.785 25.71 14.785 17.837 0 32.344-16.776 32.344-37.417 0-14.626-7.279-27.282-17.862-33.427z" opacity=".337" fill="#A5A5A5"/><path d="M95.736 70.123c0 5.004-4.06 9.062-9.064 9.062a9.062 9.062 0 0 1-9.062-9.062c0-5.006 4.06-9.064 9.062-9.064 5.007.002 9.064 4.058 9.064 9.064h0z" stroke="#000" stroke-width="3.476" fill="#000"/><path d="M85.754 66.949a2.35 2.35 0 1 1-4.701-.003 2.35 2.35 0 0 1 4.701.003z" fill="#FFF"/><path d="M118.687 70.123a9.062 9.062 0 0 1-9.061 9.062 9.063 9.063 0 0 1 0-18.125 9.061 9.061 0 0 1 9.061 9.063h0z" stroke="#000" stroke-width="3.476" fill="#000"/><path d="M108.704 66.949a2.349 2.349 0 1 1-4.699 0 2.35 2.35 0 0 1 2.35-2.351 2.35 2.35 0 0 1 2.349 2.35z" fill="#FFF"/><path d="M7.263 25.594s-13.645 15.815 10.074 30.81c3.808-3.689 4.353-4.341 8.832-7.893v-2.855c-5.426-2.96-2.921-6.83-11.771-17.832l-7.135-2.23h0z" stroke="#000" stroke-width="1.343" fill="url(#a)" transform="translate(3.323 2.017)"/><path d="M184.264 26.297s13.645 15.815-10.074 30.81c-3.808-3.688-4.353-4.341-8.832-7.893V46.36c5.427-2.96 2.922-6.831 11.771-17.832l7.135-2.23h0z" stroke="#000" stroke-width="1.343" fill="url(#b)" transform="translate(3.323 2.017)"/><path d="M90.031 122.314c37.428 1.33 67.417 35.262 67.417 76.946 0 39.342-26.696 71.758-61.162 76.401 24.048-6.714 42.23-38.118 42.23-75.855 0-40.953-21.403-74.458-48.485-77.03v-.462z" fill="#7F7F8D"/><path d="M95.053 91.069c-11.546 0-21.503 5.69-26.069 13.89-10.531 3.252-17.295 8.355-17.295 14.079 0 1.577.546 3.12 1.511 4.576a13.217 13.217 0 0 0-1.091 5.253c0 13.043 19.999 23.61 44.665 23.61s44.665-10.567 44.665-23.61c0-2.076-.518-4.093-1.47-6.011.67-1.226 1.05-2.512 1.05-3.818 0-6.268-8.12-11.778-20.401-14.946-4.768-7.734-14.428-13.023-25.565-13.023h0z" stroke="#000" stroke-width="2.687" fill="url(#c)" transform="translate(3.323 2.017)"/><path d="M114.727 100.97c0 8.711-7.062 15.773-15.773 15.773-8.711 0-15.773-7.062-15.773-15.773 0-8.711 7.062-15.773 15.773-15.773 8.71 0 15.773 7.062 15.773 15.773z" fill="#000"/><path d="M76.485 132.95h17.878v27.243H76.485V132.95z" stroke="#000" stroke-width="3.045" fill="url(#d)" transform="translate(3.323 2.017)"/><path d="M94.581 132.444h17.878v27.243H94.581v-27.243z" stroke="#000" stroke-width="3.045" fill="url(#e)" transform="translate(3.323 2.017)"/><path d="M62.901 125.756c25.973 14.497 50.262 12.156 73.232-3.38" stroke="#000" stroke-width="5.373"/></g></svg>